<svg width="12" height="12" viewBox="0 0 12 12" fill="none" xmlns="http://www.w3.org/2000/svg">
<path d="M3.10983 0.109835C3.18016 0.0395088 3.27554 0 3.375 0H8.625C8.83211 0 9 0.167893 9 0.375C9 0.884534 8.74354 1.25554 8.51517 1.48391C8.42109 1.57799 8.32769 1.65229 8.25 1.70744V5.03105C8.26844 5.04219 8.28786 5.0541 8.30812 5.06677C8.46055 5.16203 8.66536 5.30265 8.87194 5.48341C9.26935 5.83114 9.75 6.39509 9.75 7.125C9.75 7.33211 9.58211 7.5 9.375 7.5H6.375V10.875C6.375 11.0821 6.20711 12 6 12C5.79289 12 5.625 11.0821 5.625 10.875V7.5H2.625C2.41789 7.5 2.25 7.33211 2.25 7.125C2.25 6.39509 2.73065 5.83114 3.12806 5.48341C3.33464 5.30265 3.53945 5.16203 3.69188 5.06677C3.71214 5.0541 3.73156 5.04219 3.75 5.03105V1.70744C3.67231 1.65229 3.57891 1.57799 3.48483 1.48391C3.25646 1.25554 3 0.884534 3 0.375C3 0.275544 3.03951 0.180161 3.10983 0.109835ZM4.29459 1.16554L4.29296 1.16472L4.29459 1.16554ZM4.29296 1.16472L4.29459 1.16554C4.42053 1.2294 4.5 1.35867 4.5 1.5V5.25C4.5 5.39191 4.41989 5.52166 4.29304 5.58524L4.29162 5.58596L4.28247 5.59072C4.27379 5.59528 4.26012 5.60257 4.24217 5.61251C4.20621 5.63241 4.1534 5.66275 4.08937 5.70276C3.96055 5.78328 3.79036 5.90047 3.62194 6.04784C3.38335 6.25661 3.18287 6.49515 3.07818 6.75H8.92182C8.81713 6.49515 8.61665 6.25661 8.37806 6.04784C8.20964 5.90047 8.03945 5.78328 7.91063 5.70276C7.8466 5.66275 7.79379 5.63241 7.75783 5.61251C7.73988 5.60257 7.72621 5.59528 7.71753 5.59072L7.70838 5.58596L7.70729 5.58541C7.58036 5.52185 7.5 5.39197 7.5 5.25V1.5C7.5 1.35814 7.58004 1.22845 7.7068 1.16484C7.70925 1.16353 7.71425 1.16079 7.72117 1.15683C7.73507 1.14889 7.75696 1.13581 7.78417 1.11767C7.83924 1.08096 7.91254 1.02588 7.98484 0.953585C8.04504 0.893382 8.10051 0.825615 8.14498 0.75H3.85502C3.89949 0.825615 3.95496 0.893382 4.01516 0.953585C4.08746 1.02588 4.16076 1.08096 4.21583 1.11767C4.24304 1.13581 4.26493 1.14889 4.27883 1.15683C4.28575 1.16079 4.29051 1.16341 4.29296 1.16472Z" fill="white"/>
</svg>
