<svg width="14" height="14" viewBox="0 0 14 14" fill="none" xmlns="http://www.w3.org/2000/svg">
<path fill-rule="evenodd" clip-rule="evenodd" d="M7 1.75C7.24162 1.75 7.4375 1.94588 7.4375 2.1875V6.5625H11.8125C12.0541 6.5625 12.25 6.75838 12.25 7C12.25 7.24162 12.0541 7.4375 11.8125 7.4375H7.4375V11.8125C7.4375 12.0541 7.24162 12.25 7 12.25C6.75837 12.25 6.5625 12.0541 6.5625 11.8125V7.4375H2.1875C1.94588 7.4375 1.75 7.24162 1.75 7C1.75 6.75838 1.94588 6.5625 2.1875 6.5625H6.5625V2.1875C6.5625 1.94588 6.75838 1.75 7 1.75Z" fill="white"/>
</svg>
