<svg width="15" height="9" viewBox="0 0 15 9" fill="none" xmlns="http://www.w3.org/2000/svg">
<path d="M5.5 8C5.77614 8 6 8.22386 6 8.5C6 8.77614 5.77614 9 5.5 9H0.5C0.223858 9 0 8.77614 0 8.5C0 8.22386 0.223858 8 0.5 8H5.5ZM11.1465 1.14648C11.3417 0.951222 11.6583 0.951222 11.8535 1.14648C12.0488 1.34175 12.0488 1.65825 11.8535 1.85352L9.70703 4H14.5C14.7761 4 15 4.22386 15 4.5C15 4.77614 14.7761 5 14.5 5H9.70703L11.8535 7.14648C12.0488 7.34175 12.0488 7.65825 11.8535 7.85352C11.6583 8.04878 11.3417 8.04878 11.1465 7.85352L8.14648 4.85352C7.95122 4.65825 7.95122 4.34175 8.14648 4.14648L11.1465 1.14648ZM5.5 4C5.77614 4 6 4.22386 6 4.5C6 4.77614 5.77614 5 5.5 5H0.5C0.223858 5 0 4.77614 0 4.5C0 4.22386 0.223858 4 0.5 4H5.5ZM5.5 0C5.77614 0 6 0.223858 6 0.5C6 0.776142 5.77614 1 5.5 1H0.5C0.223858 1 0 0.776142 0 0.5C0 0.223858 0.223858 0 0.5 0H5.5Z" fill="#475569"/>
</svg>
